<?xml version="1.0" encoding="utf-8"?>
<!-- Generator: Adobe Illustrator 19.0.0, SVG Export Plug-In . SVG Version: 6.00 Build 0)  -->
<svg version="1.1" id="Layer_1" xmlns="http://www.w3.org/2000/svg" xmlns:xlink="http://www.w3.org/1999/xlink" x="0px" y="0px"
	 viewBox="-42 130 198.4 24.5" style="enable-background:new -42 130 198.4 24.5;" xml:space="preserve">
<metadata><?xpacket begin="﻿" id="W5M0MpCehiHzreSzNTczkc9d"?>
<x:xmpmeta xmlns:x="adobe:ns:meta/" x:xmptk="Adobe XMP Core 5.6-c067 79.157747, 2015/03/30-23:40:42        ">
   <rdf:RDF xmlns:rdf="http://www.w3.org/1999/02/22-rdf-syntax-ns#">
      <rdf:Description rdf:about=""/>
   </rdf:RDF>
</x:xmpmeta>
                                                                                                    
                                                                                                    
                                                                                                    
                                                                                                    
                                                                                                    
                                                                                                    
                                                                                                    
                                                                                                    
                                                                                                    
                                                                                                    
                                                                                                    
                                                                                                    
                                                                                                    
                                                                                                    
                                                                                                    
                                                                                                    
                                                                                                    
                                                                                                    
                                                                                                    
                                                                                                    
                           
<?xpacket end="w"?></metadata>
<style type="text/css">
	.st0{fill:#791CC0;}
</style>
<g id="XMLID_112_">
	<polygon id="XMLID_136_" class="st0" points="-19.2,138.2 -19.2,141.4 -10.2,141.4 -19.2,154.5 -4.2,154.5 -4.2,151.2 -13.2,151.2 
		-4.2,138.2 	"/>
	<path id="XMLID_133_" class="st0" d="M-42,154.5h3.3l2.6-6.5h9l2.6,6.5h3.3L-31.6,130L-42,154.5z M-34.7,144.7l3.2-7.8l3.2,7.8
		H-34.7z"/>
	<polygon id="XMLID_132_" class="st0" points="23.9,133.3 31.3,133.3 31.3,154.5 34.3,154.5 34.3,133.3 41.8,133.3 41.8,130 
		23.9,130 	"/>
	<g id="XMLID_128_">
		<path id="XMLID_131_" class="st0" d="M55,136.5L55,136.5c0.6,0,1.1-0.2,1.5-0.7c0.4-0.4,0.6-1,0.6-1.6c0-0.6-0.2-1.1-0.6-1.6
			s-0.9-0.7-1.5-0.7s-1.1,0.2-1.5,0.7c-0.4,0.4-0.6,1-0.6,1.6c0,0.6,0.2,1.2,0.6,1.6C53.9,136.2,54.4,136.5,55,136.5"/>
		<path id="XMLID_130_" class="st0" d="M47.1,136.5L47.1,136.5c0.6,0,1.1-0.2,1.4-0.7c0.4-0.4,0.6-1,0.6-1.6c0-0.6-0.2-1.1-0.6-1.6
			s-0.9-0.7-1.4-0.7c-0.6,0-1.1,0.2-1.5,0.7c-0.4,0.4-0.6,0.9-0.6,1.6c0,0.6,0.2,1.2,0.6,1.6C46,136.2,46.5,136.5,47.1,136.5"/>
		<path id="XMLID_129_" class="st0" d="M55.5,151.2H51c-1.2,0-2.3-0.5-3.2-1.5c-0.9-1-1.3-2.1-1.3-3.4v-8.1h-3v8.2
			c0,2.2,0.7,4.2,2.2,5.8c1.5,1.6,3.2,2.4,5.3,2.4h7.5v-16.4h-3V151.2z"/>
	</g>
	<path id="XMLID_127_" class="st0" d="M17.4,140.6c-1.5,1.6-2.2,3.5-2.2,5.8v8.1h3v-8.1c0-1.4,0.4-2.5,1.3-3.5
		c0.9-1,1.9-1.4,3.2-1.4h3v-3.3h-3C20.7,138.2,18.9,139,17.4,140.6"/>
	<path id="XMLID_123_" class="st0" d="M104.7,141c0.5-0.5,1.8-1.7,1.6-4.4c-0.1-1.2-0.3-2.3-0.8-3.3l0,0l0,0
		c-0.3-0.5-0.6-0.9-0.9-1.3c-1.2-1.3-2.6-1.9-4.2-1.9h-6h-3v24.5h3h6h0.8c1.8,0,3.4-0.7,4.7-2.2c1.3-1.4,2-3.2,2-5.2
		C107.8,144.5,106.7,142.4,104.7,141 M94.3,133.3h6c0.8,0,1.5,0.3,2.1,0.9c0.6,0.7,0.9,1.4,0.9,2.3c0,0.9-0.3,1.7-0.9,2.3
		c-0.6,0.6-1.3,1-2.1,1h-6V133.3z M103.7,150c-0.7,0.8-1.6,1.2-2.6,1.2h-6.7v-8.1h6.6h0.2c1,0,1.9,0.4,2.6,1.2
		c0.7,0.8,1.1,1.7,1.1,2.9S104.4,149.2,103.7,150"/>
	<path id="XMLID_122_" class="st0" d="M134.6,138.2L134.6,138.2c-2.1,0-3.8,0.8-5.3,2.4c-1.4,1.6-2.2,3.5-2.2,5.8v8.2h3v-8.2
		c0-1.4,0.4-2.5,1.3-3.5c0.9-1,1.9-1.4,3.2-1.4c1.2,0,2.3,0.5,3.2,1.4c0.9,1,1.3,2.1,1.3,3.5v8.2h3v-8.2c0-2.3-0.7-4.2-2.2-5.8
		C138.4,139,136.6,138.2,134.6,138.2"/>
	<polygon id="XMLID_121_" class="st0" points="83.5,138.2 78.4,144.7 78.4,130 75.4,130 75.4,154.5 78.4,154.5 78.4,149.1 
		83.2,154.5 87.3,154.5 80.5,146.9 87.3,138.2 	"/>
	<path id="XMLID_118_" class="st0" d="M117.2,138.2L117.2,138.2c-2.1,0-3.8,0.8-5.3,2.4c-1.4,1.6-2.2,3.5-2.2,5.8
		c0,2.2,0.7,4.2,2.2,5.8c1.5,1.6,3.2,2.4,5.3,2.4h7.5v-8.2c0-2.3-0.7-4.2-2.2-5.8C121,139,119.2,138.2,117.2,138.2 M121.6,151.2
		h-4.5c-1.2,0-2.3-0.5-3.2-1.5s-1.3-2.1-1.3-3.4c0-1.4,0.4-2.5,1.3-3.5c0.9-1,1.9-1.4,3.2-1.4c1.2,0,2.3,0.5,3.2,1.4
		c0.9,1,1.3,2.1,1.3,3.5V151.2z"/>
	<path id="XMLID_117_" class="st0" d="M64.1,140.6c-1.5,1.6-2.2,3.5-2.2,5.8v8.1h3v-8.1c0-1.4,0.4-2.5,1.3-3.5s1.9-1.4,3.2-1.4h3
		v-3.3h-3C67.3,138.2,65.5,139,64.1,140.6"/>
	<path id="XMLID_114_" class="st0" d="M5.5,138.2h-6.1v3.3h6.1c1,0,1.8,0.3,2.6,0.9c0.7,0.6,1.3,1.4,1.6,2.3H-2v1.6
		c0,2.3,0.7,4.2,2.2,5.8c1.4,1.6,3.2,2.4,5.2,2.4c2.1,0,3.8-0.8,5.3-2.4s2.2-3.5,2.2-5.8c0-2.2-0.7-4.2-2.2-5.8
		C9.4,139,7.6,138.2,5.5,138.2 M8.2,150.3c-0.8,0.6-1.7,0.9-2.6,0.9c-0.9,0-1.8-0.3-2.6-0.9c-0.8-0.6-1.3-1.4-1.6-2.4h8.4
		C9.5,148.9,8.9,149.7,8.2,150.3"/>
	<polygon id="XMLID_113_" class="st0" points="152.5,138.2 147.5,144.7 147.5,130 144.5,130 144.5,154.5 147.5,154.5 147.4,149.1 
		152.3,154.5 156.4,154.5 149.5,146.9 156.4,138.2 	"/>
</g>
</svg>
